<svg width="37" height="24" viewBox="0 0 37 24" fill="none" xmlns="http://www.w3.org/2000/svg">
<g clip-path="url(#clip0_728_26682)">
<path d="M1.62891 0.5H35.3701V23.5H1.62891V0.5Z" fill="#7EB300"/>
<path d="M24.4416 16.8604C24.0842 16.8604 23.996 16.9142 23.7577 16.8963C23.5195 16.8784 23.0166 16.8335 23.0166 16.8335C23.0166 16.8335 23.0166 16.6453 22.9636 16.5467C22.9107 16.448 22.7783 16.3584 22.6592 16.4032C22.5357 16.448 22.5269 16.5198 22.5269 16.5915C22.5269 16.717 22.6813 16.7798 22.6901 16.8335C22.6901 16.8335 18.8607 16.6542 16.8974 16.6542C14.9386 16.6542 13.271 16.8918 12.4504 16.7125C12.4504 16.7125 12.4813 17.2459 13.8842 17.2773C15.2871 17.3087 17.6298 17.2459 18.7107 17.2459C19.7916 17.2459 22.4563 17.3356 22.6901 17.367C22.6901 17.367 22.7033 17.4701 22.668 17.5059C22.6327 17.5418 22.6239 17.5956 22.6239 17.6583C22.6239 17.7211 22.646 17.8152 22.6901 17.8869C22.7342 17.9587 22.7519 17.9856 22.8313 17.9856C22.9283 17.9856 23.0254 17.9228 22.9901 17.8242C22.9901 17.8242 23.2769 17.7794 23.3651 17.8063C23.4533 17.8332 23.5857 17.9049 23.7401 17.9049C23.8989 17.9049 24.1769 17.8601 24.2651 17.8063C24.2651 17.8063 24.2827 17.9587 24.5254 17.9587C24.768 17.9587 24.8916 17.7883 24.8916 17.5508C24.896 17.3132 24.7989 16.8604 24.4416 16.8604ZM24.1857 17.6673C24.1416 17.6942 23.8107 17.7076 23.8107 17.6404C23.8063 17.5732 23.7313 17.5149 23.6827 17.5149C23.5327 17.5149 23.5857 17.5956 23.4886 17.5956C23.3916 17.5956 22.9107 17.5866 22.9107 17.5866C22.9107 17.5866 22.8754 17.4611 22.9725 17.4342C22.9725 17.4342 23.343 17.3983 23.6475 17.3983C24.018 17.3983 24.2607 17.4701 24.2607 17.4701C24.2607 17.4701 24.2298 17.6404 24.1857 17.6673ZM10.7827 6.9764C10.7827 6.9764 10.8092 6.60883 10.6989 6.51918C10.5974 6.43849 10.5666 6.32643 10.5974 6.27712C10.6724 6.14265 10.7739 6.13816 10.8445 6.17851C10.9371 6.2323 10.9901 6.3847 10.9857 6.50573C10.9768 6.63125 10.9063 6.83296 10.7827 6.9764ZM10.2798 9.93937C10.2798 9.93937 10.7783 9.25354 11.1004 9.13699C11.4224 9.01597 11.643 9.09217 11.6563 9.24009C11.6695 9.38802 11.5548 9.46422 11.3474 9.50905C11.118 9.55835 10.6195 9.8049 10.4474 9.93937C10.346 10.0245 10.2357 10.0156 10.2798 9.93937ZM10.368 10.5804C10.368 10.5804 10.0857 11.1048 10.0592 11.4903C10.0371 11.8489 10.0901 12.0865 10.3504 12.0865C10.6151 12.0865 10.7298 11.7458 10.7298 11.58C10.7298 11.4141 10.6989 11.4321 10.6283 11.4321C10.5533 11.4321 10.4474 11.6338 10.3768 11.5979C10.2401 11.5262 10.2577 11.3334 10.3018 11.2079C10.3636 11.051 10.3504 10.8404 10.368 10.5804Z" fill="white"/>
<path d="M10.236 7.04838C10.236 7.04838 10.1434 7.67146 10.1743 8.03903C10.2052 8.4066 10.4257 8.68003 10.6331 8.68003C10.836 8.68003 11.0125 8.39315 11.0125 8.10178C11.0125 7.8149 11.0434 7.54146 11.1228 7.51008C11.2022 7.47871 11.2066 8.42004 11.2419 8.55004C11.3125 8.8414 11.6169 8.67107 11.7405 8.99829C11.789 9.13277 11.8199 10.1682 11.8331 10.3117C11.8507 10.4551 11.8507 10.4551 11.961 10.2938C12.0713 10.1324 12.164 9.7155 12.1816 9.46C12.1993 9.20449 12.1199 8.81899 12.0713 8.69348C12.0228 8.56349 12.1022 8.38867 12.2125 8.4066C12.3228 8.42453 12.4507 8.57245 12.6449 8.59935C12.8302 8.62176 13.236 8.55004 13.3155 8.29453C13.3949 8.03903 13.064 7.34871 13.0772 7.23665C13.0949 7.12458 13.1566 7.23665 13.2184 7.17389C13.2802 7.11114 13.0772 6.74357 12.9493 6.70771C12.8257 6.67633 12.6007 6.78839 12.6493 7.01252C12.6978 7.23665 12.9802 7.65353 12.9978 7.8911C13.0155 8.13316 12.6978 8.13316 12.6052 7.97179C12.5081 7.81042 12.3978 7.61767 12.3978 7.38009C12.3978 7.13803 12.4419 6.90046 12.2831 6.78839C12.1243 6.67633 11.9787 6.80184 12.0228 7.13803C12.0713 7.47422 12.2831 8.00317 12.0669 7.95386C11.9963 7.94041 11.9257 7.5056 11.8772 7.08872C11.8287 6.67185 11.9213 6.32221 11.6566 6.2729C11.4537 6.23704 11.414 6.376 11.4934 6.88701C11.5728 7.39802 11.6566 7.82386 11.5816 8.01661C11.5022 8.20936 11.4537 7.66249 11.4404 7.31285C11.4228 6.95873 11.4096 6.90494 11.2022 6.94977C10.8934 7.017 10.761 7.39802 10.7434 7.8149C10.7257 8.23178 10.4787 8.49625 10.4302 7.92248C10.3772 7.34871 10.3772 7.31733 10.236 7.04838Z" fill="white"/>
<path d="M12.271 6.24116C12.2534 6.21875 12.1342 6.26806 12.1298 6.39805C12.121 6.53701 12.1739 6.7208 12.3592 6.7208C12.5445 6.7208 12.7651 6.6939 12.7651 6.5146C12.7651 6.3353 12.6813 6.21875 12.6548 6.22323C12.6284 6.2322 12.6901 6.35323 12.6416 6.4115C12.5931 6.46977 12.5181 6.40253 12.5004 6.32185C12.4828 6.24116 12.4916 6.21875 12.4739 6.21875C12.4607 6.21875 12.4475 6.26358 12.4387 6.31288C12.4298 6.36219 12.3416 6.44736 12.2842 6.41598C12.2225 6.38461 12.2842 6.25461 12.271 6.24116ZM17.746 8.58554C17.7284 8.56313 17.6137 8.61244 17.6048 8.74243C17.596 8.88139 17.649 9.06517 17.8342 9.06517C18.0195 9.06517 18.2401 9.03828 18.2401 8.85898C18.2401 8.67967 18.1563 8.56313 18.1298 8.56761C18.1034 8.57658 18.1651 8.6976 18.1166 8.75588C18.0681 8.81415 17.9931 8.74691 17.9754 8.66623C17.9578 8.58554 17.9666 8.56313 17.949 8.56313C17.9357 8.56313 17.9225 8.60795 17.9137 8.65726C17.9048 8.70657 17.8166 8.79174 17.7592 8.76036C17.6975 8.72898 17.7592 8.60347 17.746 8.58554ZM20.8916 7.60386C20.874 7.58145 20.7548 7.63076 20.7504 7.76075C20.7416 7.89971 20.7945 8.08349 20.9798 8.08349C21.1651 8.08349 21.3857 8.0566 21.3857 7.8773C21.3857 7.69799 21.3019 7.58145 21.2754 7.58593C21.249 7.5949 21.3107 7.71592 21.2622 7.7742C21.2137 7.83247 21.1387 7.76523 21.121 7.68455C21.1034 7.60386 21.1122 7.58145 21.0945 7.58145C21.0813 7.58145 21.0681 7.62627 21.0593 7.67558C21.0504 7.72489 20.9622 7.81006 20.9048 7.77868C20.8475 7.7473 20.9093 7.62179 20.8916 7.60386ZM15.3901 6.83734C15.3901 6.83734 15.4342 6.7208 15.4342 6.51908C15.4342 6.31737 15.3416 6.22771 15.1872 6.22771C15.024 6.22771 14.9269 6.35323 14.896 6.50563C14.8739 6.59977 14.896 6.76562 15.046 6.84183C15.046 6.84183 15.0548 6.94044 14.8872 7.08388C14.7239 7.22733 14.2695 7.65317 14.1725 7.66662C14.0754 7.68455 14.0931 7.68455 14.0975 7.71144C14.1151 7.82799 14.8916 7.77868 15.3592 6.95389C15.3592 6.95389 15.4342 6.9763 15.4607 6.92251C15.4872 6.86872 15.3901 6.83734 15.3901 6.83734ZM15.1872 6.71631C15.1431 6.71631 15.1078 6.66252 15.1078 6.59529C15.1078 6.52805 15.1431 6.47426 15.1872 6.47426C15.2313 6.47426 15.2666 6.52805 15.2666 6.59529C15.2622 6.66252 15.2269 6.71631 15.1872 6.71631ZM15.0901 7.74282C15.0989 7.66662 15.0857 7.6442 14.9798 7.69351C14.9137 7.72489 14.8607 7.7473 14.8166 7.7742C14.7725 7.80109 14.7813 7.80109 14.7901 7.8504C14.7989 7.89523 14.8254 8.23142 14.9842 8.28073C15.1431 8.33003 15.2931 8.22245 15.3195 8.12384C15.346 8.02522 15.3813 7.9535 15.3592 7.93557C15.3372 7.91764 15.1563 8.17763 15.0769 8.08349C14.9975 7.98488 15.0681 7.89074 15.0901 7.74282Z" fill="white"/>
<path d="M15.3985 8.61372C15.3721 8.60476 15.2309 8.72578 15.1603 8.81992C15.0941 8.90957 15.1515 9.01715 15.0588 9.03956C14.9838 9.05749 14.9044 8.88267 14.8691 8.84681C14.8338 8.81095 14.8118 8.79302 14.7544 8.80647C14.6971 8.81992 14.6309 8.89612 14.5471 9.06198C14.4677 9.23231 14.3485 9.2368 14.2779 9.12921C14.1632 8.95439 14.2471 8.8244 14.1324 8.83785C14.0177 8.8513 13.9912 9.04405 13.9029 8.91853C13.8147 8.78854 13.7574 7.93237 13.6779 7.31378C13.6691 7.25999 13.6647 7.22413 13.6824 7.21516C13.7529 7.1793 13.8985 7.28688 13.9294 7.24206C13.9559 7.19723 13.9471 7.11655 13.8677 6.93724C13.7882 6.75794 13.625 6.28279 13.5059 6.24693C13.3912 6.20659 13.25 6.6145 13.2721 6.77587C13.2941 6.93724 13.5677 8.39408 13.5632 8.77061C13.5544 9.14714 13.5368 9.20094 13.4529 9.20094C13.3691 9.20094 13.3382 9.05749 13.2147 8.97233C13.0956 8.88716 13.0118 8.83785 12.8882 8.83785C12.6765 8.83785 12.425 9.06646 12.3632 9.29507C12.3015 9.5192 12.3412 9.92711 12.5926 9.97642C12.8176 10.0212 13.0162 9.91814 13.1 9.85539C13.1397 9.82849 13.1618 9.80608 13.1706 9.81505C13.1794 9.82401 13.1927 9.96745 13.0779 10.1512C12.9632 10.335 12.5044 10.8102 12.0809 10.8102C11.6574 10.8102 11.5912 10.3754 11.5912 10.1468C11.5912 9.91814 11.6132 9.93607 11.6132 9.87332C11.6132 9.81056 11.5515 9.71195 11.4985 9.72091C11.45 9.72988 11.3529 9.86435 11.3529 10.2723C11.3529 10.6802 11.5603 11.2764 12.0853 11.2764C12.6103 11.2764 13.1794 10.9357 13.4574 9.93607C13.5103 9.74332 13.475 9.68953 13.5103 9.66712C13.5368 9.64919 13.6074 9.83298 13.6206 9.94952C13.6338 10.1243 13.5809 11.5588 12.05 11.5588C12.05 11.5588 11.7412 11.5543 11.6265 11.4781C11.5118 11.4019 11.3794 11.1822 11.3 10.8147C11.2206 10.4471 11.2471 10.3036 11.2162 10.3216C11.1853 10.335 11 10.5726 11 11.0298C11 11.487 11.0397 12.0787 11.9794 12.0787C12.7691 12.0787 13.4529 11.626 13.7221 11.0971C13.9912 10.5681 13.9382 9.78367 13.9382 9.69402C13.9382 9.60437 14.0221 9.61333 14.0309 9.66712C14.0397 9.72091 14.1412 9.73436 14.1941 9.73884C14.2471 9.74332 14.375 9.72988 14.4456 9.68505C14.5162 9.64023 14.6353 9.50127 14.7015 9.50127C14.7677 9.50127 14.7809 9.61333 14.975 9.61333C15.1735 9.61333 15.3279 9.53713 15.4029 8.95888C15.4338 8.70785 15.4294 8.62269 15.3985 8.61372ZM12.8176 9.5192C12.7338 9.52816 12.6588 9.47885 12.65 9.41162C12.6412 9.34438 12.7074 9.27714 12.7912 9.26817C12.875 9.25921 12.95 9.30852 12.9588 9.37576C12.9632 9.44299 12.9015 9.50575 12.8176 9.5192Z" fill="white"/>
<path d="M14.6466 10.2491C14.6466 10.2491 14.501 10.2267 14.4481 10.0922C14.3952 9.95325 14.554 9.86808 14.6246 9.85911C14.6996 9.85015 14.876 9.9667 14.8452 10.2088C14.8143 10.4508 14.7393 10.666 14.6996 10.6525C14.6599 10.6436 14.6687 10.3567 14.6775 10.2805C14.6908 10.2088 14.6466 10.2491 14.6466 10.2491ZM16.2305 6.01308C16.2966 5.99963 16.3187 6.08928 16.3496 6.12515C16.3805 6.16101 16.3716 6.17445 16.3408 6.19687C16.3099 6.21928 16.1775 6.35824 16.1643 6.42099C16.1466 6.48823 16.2481 6.51961 16.2966 6.47927C16.3319 6.44789 16.3849 6.51513 16.3805 6.55995C16.3716 6.64064 16.3055 6.73477 16.1555 6.73477C16.0055 6.73477 15.9349 6.6496 15.9393 6.54651C15.9437 6.48375 16.0099 6.24617 16.0716 6.16101C16.1378 6.07584 16.2084 6.01756 16.2305 6.01308ZM17.2408 6.10273C17.3731 6.06687 17.4746 6.25514 17.4481 6.34479C17.4216 6.43444 17.404 6.54202 17.3687 6.60478C17.3334 6.66753 17.3025 6.73926 17.3069 6.77512C17.3158 6.81098 17.2761 6.83339 17.2628 6.83339C17.2496 6.83339 17.1393 6.86028 17.1216 6.79305C17.104 6.73029 17.1128 6.63616 17.1437 6.57788C17.1746 6.51961 17.1878 6.38962 17.1613 6.32686C17.1349 6.2641 17.1349 6.13411 17.2408 6.10273Z" fill="white"/>
<path d="M15.536 7.23633C15.536 7.65769 15.7963 8.2987 16.1448 8.2718C16.4316 8.25387 16.4713 7.85044 16.5375 7.64424C16.6037 7.43804 16.6037 7.34839 16.6434 7.33943C16.6831 7.33046 16.7007 8.01629 16.7978 8.15077C16.8948 8.28973 17.0095 8.42421 17.1816 8.42421C17.3537 8.42421 17.5654 8.38386 17.7419 8.15974C17.914 7.93561 17.9537 7.90423 18.0904 8.11043C18.2272 8.31663 18.3419 8.35249 18.4478 8.35249C18.5537 8.35249 18.8845 8.32111 18.9772 7.9625C19.0257 7.77872 19.114 7.84596 19.1404 7.93113C19.1669 8.02078 19.1404 8.15525 19.1978 8.15525C19.2551 8.15525 19.4184 8.01629 19.4757 7.90871C19.5331 7.80113 19.5816 7.67562 19.5419 7.59493C19.5022 7.51873 19.4272 7.59493 19.3478 7.64424C19.2684 7.69355 19.3169 7.72045 19.2595 7.72045C19.2022 7.72045 19.0478 7.77872 19.0169 7.63079C18.986 7.48287 18.8713 7.18254 18.7963 7.04358C18.7169 6.9091 18.7169 6.7298 18.8051 6.73877C18.8934 6.74773 19.0169 6.84635 19.0654 6.806C19.114 6.76566 18.9198 6.59084 18.9022 6.43395C18.8845 6.27706 18.739 6.07086 18.5669 6.1381C18.3948 6.20534 18.2316 6.45188 18.3948 6.82393C18.5581 7.19599 18.6331 7.37529 18.6463 7.45149C18.6772 7.63976 18.5492 7.89975 18.3772 7.86389C18.2051 7.82354 18.1081 7.60838 18.0904 7.33495C18.0728 7.06151 17.9757 6.37568 17.9272 6.21879C17.8787 6.0619 17.861 6.04397 17.8125 6.07086C17.764 6.10224 17.5522 6.20982 17.5831 6.43395C17.614 6.65808 17.7287 6.79704 17.7287 6.79704C17.7287 6.79704 17.8345 7.4246 17.7684 7.50977C17.7022 7.59942 17.5478 7.87285 17.4022 7.88182C17.2081 7.89078 16.9875 7.69803 16.9875 7.5008C16.9875 7.30357 17.0757 6.62222 16.8904 6.48326C16.7095 6.3443 16.5154 6.70739 16.3125 7.17806C16.1095 7.64872 16.2463 7.81458 16.0698 7.76527C15.8978 7.71596 15.8669 7.36184 15.8184 7.06151C15.7698 6.7567 15.739 6.64015 15.6816 6.68049C15.6242 6.73877 15.536 6.98082 15.536 7.23633ZM16.136 9.2221C16.1801 9.07866 16.264 9.17728 16.2904 9.02039C16.3169 8.8635 16.1051 8.56317 15.9375 8.54972C15.7698 8.53627 15.5007 8.77833 15.6684 9.17728C15.836 9.57622 16.0081 9.64795 15.9772 9.77794C15.9507 9.90793 15.8934 10.1231 15.5978 10.4055C15.3022 10.6924 14.3184 11.3065 14.0228 11.4903C13.7272 11.6741 13.4448 11.9027 13.4889 11.9609C13.5331 12.0192 14.0228 11.8444 14.2919 11.7772C14.561 11.7054 15.6331 11.2034 16.0787 10.6027C16.5551 9.96172 16.3037 9.57174 16.2331 9.45968C16.1669 9.3521 16.136 9.2221 16.136 9.2221Z" fill="white"/>
<path d="M19.8739 9.95297C19.521 9.89469 18.8901 10.0247 18.6651 9.99779C18.4401 9.9709 18.3695 9.88573 18.5945 9.80952C18.8195 9.7378 18.8901 9.79608 19.0048 9.78263C19.3974 9.72435 19.5695 9.4554 19.6357 9.11024C19.7063 8.76957 19.3974 8.43786 19.1592 8.41097C18.921 8.38407 18.5945 8.55441 18.568 8.76957C18.5416 8.98473 18.6651 9.1999 18.6386 9.25369C18.6121 9.31196 18.3563 9.28058 17.893 9.49574C17.4298 9.71091 17.346 9.88124 17.2621 9.97986C17.1783 10.0785 17.2357 9.96641 17.218 9.80952C17.2048 9.65263 16.8783 8.72474 16.7416 8.50958C16.6004 8.29442 16.543 8.29442 16.5033 8.43786C16.4592 8.5813 16.446 8.90853 16.5166 9.16852C16.5871 9.42402 16.8121 9.81401 16.7989 10.1278C16.7857 10.4416 16.6666 11.1095 15.6298 11.4994C15.3607 11.5981 15.096 11.6563 15.1798 11.0557C15.2636 10.455 15.3077 10.2712 15.2636 10.1995C15.2283 10.1367 14.6857 10.9571 14.8401 11.5308C15.0386 12.2615 15.9077 12.2749 16.4151 11.6608C16.9224 11.0467 16.993 10.9615 17.0636 11.0736C17.1342 11.1902 17.4298 11.7594 18.2724 11.8894C18.7533 11.9612 18.7798 11.8625 18.7798 11.7012C18.7798 11.5443 18.6651 11.4457 18.5548 11.4143C18.4445 11.3874 18.2195 11.2439 18.2195 11.1408C18.2195 11.0422 18.193 10.8853 18.7269 10.7957C19.2607 10.7105 19.6269 10.6119 19.7548 10.594C19.8827 10.5805 20.0372 10.464 19.9798 10.4057C19.9224 10.3474 19.9533 10.2488 20.0504 10.1636C20.143 10.0785 20.2269 10.0068 19.8739 9.95297ZM18.9474 8.93542C18.9783 8.91301 19.0357 8.93991 19.071 8.99818C19.1063 9.05645 19.1107 9.11921 19.0754 9.14162C19.0445 9.16403 18.9871 9.13266 18.9519 9.07887C18.9166 9.02059 18.9121 8.95784 18.9474 8.93542ZM18.0607 10.6522C17.9504 10.6971 17.8489 10.8809 17.8621 10.966C17.893 11.1498 17.8489 11.2036 17.5974 11.0826C17.2445 10.9122 17.2886 10.4819 17.2577 10.4236C17.2313 10.3654 17.2798 10.3071 17.3548 10.2936C17.4519 10.2802 17.7342 10.3071 17.9019 10.3385C18.0695 10.3654 18.2945 10.4505 18.2945 10.5223C18.2989 10.594 18.1621 10.6119 18.0607 10.6522Z" fill="white"/>
<path d="M19.1151 11.3693C19.1901 11.3065 19.2651 11.2348 19.3931 11.1855C19.521 11.1407 19.4901 11.2214 19.4725 11.2797C19.4548 11.3379 19.446 11.5755 19.521 11.5934C19.596 11.6114 19.8475 11.5531 19.8828 11.4993C19.9181 11.4455 19.9181 11.4186 19.9445 11.4231C19.971 11.4276 20.0769 11.5038 20.1695 11.5531C20.2666 11.5979 20.2048 11.6203 20.0239 11.6562C19.8431 11.692 19.6048 11.8086 19.4681 11.8086C19.3313 11.8086 19.3313 11.692 19.318 11.6158C19.3092 11.5396 19.2783 11.5038 19.221 11.5172C19.1592 11.5262 19.1063 11.5307 19.0886 11.4814C19.0754 11.4276 19.1151 11.3693 19.1151 11.3693ZM24.7886 11.71C24.8328 11.6248 24.8769 11.5307 24.9651 11.459C25.0534 11.3872 25.0445 11.4859 25.0401 11.5531C25.0357 11.6203 25.071 11.8893 25.1284 11.8982C25.1857 11.9072 25.3622 11.8041 25.3798 11.7369C25.3975 11.6696 25.3931 11.6427 25.4151 11.6427C25.4372 11.6427 25.5254 11.7145 25.6048 11.7548C25.6842 11.7907 25.6401 11.8265 25.5122 11.8938C25.3842 11.961 25.2254 12.1313 25.1239 12.1538C25.0225 12.1717 25.0004 12.0417 24.9828 11.9565C24.9607 11.8714 24.9342 11.8355 24.8945 11.8579C24.8504 11.8803 24.8107 11.8938 24.7886 11.84C24.771 11.7862 24.7886 11.71 24.7886 11.71ZM20.1651 6.51918C20.0945 6.40711 20.1519 6.26367 20.0548 6.26367C19.9578 6.26367 19.9181 6.37574 19.9181 6.44746C19.9181 6.51918 19.896 6.82847 20.0151 6.99433C20.0857 7.09295 20.0989 7.11984 20.0989 7.20501C20.0989 7.29018 20.346 8.73804 20.346 10.2576C20.346 10.9614 20.2622 11.0152 20.2754 11.1004C20.2886 11.1855 20.3019 11.45 20.346 11.4814C20.3857 11.5083 20.6239 11.2572 20.6504 10.8359C20.6769 10.4145 20.6504 8.82321 20.4563 7.44707C20.4298 7.24983 20.5533 7.46051 20.5798 7.38879C20.6063 7.31707 20.5622 6.83744 20.4254 6.75675C20.2975 6.67607 20.2489 6.64469 20.1651 6.51918ZM22.4372 6.51918C22.3666 6.40711 22.4239 6.26367 22.3269 6.26367C22.2298 6.26367 22.1901 6.37574 22.1901 6.44746C22.1901 6.51918 22.1681 6.82847 22.2872 6.99433C22.3578 7.09295 22.371 7.11984 22.371 7.20501C22.371 7.29018 22.7063 8.55874 22.7548 9.90351C22.7813 10.6476 22.7372 11.2259 22.7813 11.2528C22.821 11.2797 22.9754 11.0824 23.0019 10.6611C23.0283 10.2397 22.9269 8.82321 22.7328 7.44707C22.7063 7.24983 22.8298 7.46051 22.8563 7.38879C22.8828 7.31707 22.8386 6.83744 22.7019 6.75675C22.5695 6.67607 22.521 6.64469 22.4372 6.51918Z" fill="white"/>
<path d="M19.1731 6.29522C19.0584 6.2235 19.0496 6.06661 18.9569 6.11144C18.8687 6.15626 18.8775 6.27729 18.9084 6.34453C18.9393 6.41177 19.0584 6.70762 19.2437 6.81071C19.354 6.86899 19.3761 6.8914 19.4158 6.9676C19.4511 7.04381 20.329 8.28099 21.004 9.693C21.3172 10.3475 21.2643 10.4371 21.3128 10.5088C21.3614 10.5805 21.4937 10.8226 21.5466 10.8316C21.5996 10.8405 21.7055 10.4954 21.5422 10.0919C21.379 9.68852 20.6466 8.21824 19.8569 7.02588C19.7422 6.85554 19.954 6.9945 19.9496 6.9183C19.9452 6.84209 19.6893 6.41177 19.5261 6.39832C19.3672 6.38487 19.3055 6.37591 19.1731 6.29522Z" fill="white"/>
<path d="M22.1225 10.9261C22.1798 10.6661 22.1048 9.35721 22.0872 9.09274C22.074 8.82827 22.0254 7.99451 21.9592 7.45213C21.9372 7.25489 22.0563 7.47006 22.0872 7.39833C22.1181 7.32661 22.0828 6.84698 21.946 6.76181C21.8137 6.68113 21.7695 6.64527 21.6857 6.51527C21.6151 6.40321 21.6769 6.25977 21.5798 6.25977C21.4828 6.25977 21.4387 6.37183 21.4387 6.43907C21.4387 6.51079 21.4078 6.82008 21.5269 6.99042C21.5931 7.08904 21.6063 7.12042 21.6063 7.2011C21.6063 7.28627 21.8534 8.70276 21.8181 10.2223C21.8048 10.8589 21.7342 10.9306 21.5754 11.1144C21.3328 11.3968 20.8387 11.8092 20.6754 11.8495C20.5122 11.8899 20.4681 11.9123 20.5122 11.9885C20.5519 12.0557 20.7725 12.1409 20.9357 12.1409C21.099 12.1409 21.2401 12.1409 21.4695 11.9705C21.7166 11.7912 21.9857 11.585 22.1225 10.9261ZM23.3092 7.94072C23.2563 8.04831 23.1813 8.2545 23.2387 8.3576C23.296 8.45622 23.5916 8.55932 23.6754 8.70276C23.7592 8.8462 23.8034 8.83275 23.8166 8.74758C23.8298 8.66242 23.7901 8.33071 23.9313 8.14692C23.9931 8.06175 24.1166 8.06175 24.1298 7.93176C24.1431 7.80176 24.0328 7.7166 23.9445 7.70315C23.8607 7.6897 23.7328 7.6897 23.7195 7.77487C23.7063 7.86004 23.649 8.27692 23.5916 8.23209C23.5342 8.18727 23.4637 8.06175 23.424 7.99003C23.3798 7.90935 23.3357 7.88245 23.3092 7.94072ZM23.6931 9.67996C23.5607 9.77409 23.4416 9.83236 23.4284 9.81443L23.3313 9.6172C23.3225 9.59479 23.4195 9.50065 23.5563 9.40652L24.0548 9.0524C24.1872 8.95826 24.3063 8.89999 24.3195 8.91792L24.4166 9.11515C24.4254 9.13757 24.3284 9.2317 24.1916 9.32583L23.6931 9.67996ZM24.2534 9.45135C24.1784 9.411 24.0813 9.6172 24.0813 9.72926C24.0813 9.8996 24.2401 10.0655 24.2798 10.1103C24.3372 10.1775 24.346 10.3254 24.2842 10.3837C24.2269 10.4375 24.1695 10.451 24.2181 10.4913C24.2666 10.5272 24.4695 10.3434 24.4695 10.2089C24.4695 10.0744 24.3857 9.91305 24.3504 9.84133C24.3151 9.76961 24.3504 9.70685 24.3504 9.63513C24.3548 9.55444 24.324 9.48721 24.2534 9.45135Z" fill="white"/>
<path d="M26.3441 10.2666C26.2647 10.0783 26.053 9.69731 25.7618 9.23112C25.7133 8.72908 25.6383 8.12842 25.5456 7.46948C25.5191 7.27225 25.6427 7.48293 25.6691 7.41121C25.6956 7.33949 25.6515 6.85985 25.5147 6.77917C25.3824 6.69848 25.3338 6.6671 25.25 6.54159C25.1794 6.42953 25.2368 6.29057 25.1397 6.29057C25.0427 6.29057 25.003 6.40263 25.003 6.47435C25.003 6.54607 24.9809 6.85537 25.1 7.02122C25.1706 7.11984 25.1838 7.14674 25.1838 7.2319C25.1838 7.2857 25.3074 7.86394 25.3956 8.66184C25.2236 8.39737 25.0383 8.11945 24.8441 7.84153C24.8265 7.70706 24.8088 7.57706 24.7912 7.44707C24.7647 7.24983 24.8883 7.46051 24.9147 7.38879C24.9412 7.31707 24.8971 6.83744 24.7647 6.75675C24.6324 6.67607 24.5838 6.64469 24.5 6.51918C24.4294 6.40711 24.4868 6.26367 24.3897 6.26367C24.2927 6.26367 24.253 6.37574 24.253 6.44746C24.253 6.50573 24.2397 6.72089 24.2971 6.89123C24.2794 6.88675 24.2662 6.87778 24.253 6.87778C24.0853 6.8733 24.0236 6.86882 23.8824 6.7971C23.7588 6.73434 23.75 6.57297 23.6574 6.62228C23.5603 6.67158 23.5736 6.7971 23.6044 6.85985C23.6353 6.92261 23.7588 7.21397 23.953 7.30811C24.0677 7.3619 24.0941 7.37983 24.1338 7.45603C24.1515 7.48741 24.3059 7.66223 24.5265 7.94015C24.5971 8.52288 24.6809 9.37905 24.6809 10.2621V10.419C24.6633 10.5355 24.6236 10.67 24.5397 10.7731C24.4118 10.9255 24.2927 11.0376 24.1206 10.7911C23.9485 10.549 23.8162 10.3294 23.6838 10.3742C23.5515 10.419 23.4235 10.549 23.3177 10.8942C23.2118 11.2393 22.9383 11.7414 22.8059 11.6069C22.6735 11.4724 22.4971 11.3514 22.4971 10.9748C22.4971 10.6028 22.5588 10.549 22.5368 10.4593C22.5103 10.3697 22.303 10.7149 22.2897 11.1407C22.2765 11.5665 22.4618 11.9162 22.8324 12.1C23.203 12.2793 23.3486 11.8355 23.3971 11.6965C23.4412 11.5576 23.4941 11.1317 23.5691 11.0914C23.6574 11.0466 23.8118 11.0914 23.8338 11.1317C23.8603 11.1721 23.9971 11.3559 24.1383 11.4141C24.2706 11.4679 24.5177 11.5396 24.6941 11.4455C24.8883 11.3424 24.9897 11.19 25.0294 10.9076C25.0515 10.7507 25.0559 10.5221 25.0427 10.3787C25.0427 9.90799 24.9941 9.19078 24.9147 8.42875C25.0868 8.65736 25.2721 8.92183 25.453 9.19975C25.4794 9.53146 25.4971 9.8811 25.4971 10.2397C25.4971 10.9435 25.4971 11.1452 25.5677 11.1541C25.6162 11.1586 25.7971 10.8359 25.8236 10.4145C25.8324 10.28 25.828 10.0694 25.8103 9.80041C26.1456 10.4145 26.3486 10.9031 26.3971 10.9076C26.4544 10.921 26.5118 10.6611 26.3441 10.2666ZM25.8103 6.85537C25.85 6.80606 25.8721 6.78813 25.925 6.8733C25.978 6.96295 26.0883 7.1826 26.0883 7.53224C26.0883 7.88188 25.9691 7.90429 25.9294 7.90877C25.8941 7.91325 25.9471 7.85498 25.978 7.73843C26.0088 7.62189 25.9956 7.53224 25.9206 7.37535C25.8412 7.21397 25.7309 7.14225 25.7044 7.11536C25.678 7.08846 25.6736 7.06605 25.7044 7.01674C25.7353 6.96743 25.7971 6.8733 25.8103 6.85537Z" fill="white"/>
<path d="M26.6956 7.38028C26.6691 7.19201 26.7927 7.39373 26.8191 7.32649C26.8456 7.25925 26.6868 7.02616 26.6029 6.90513C26.5324 6.79755 26.4662 6.56445 26.3691 6.56445C26.2721 6.56445 26.2324 6.67203 26.2324 6.74376C26.2324 6.81099 26.2103 7.11133 26.3294 7.27718C26.4 7.37131 26.4132 7.40269 26.4132 7.48338C26.4132 7.56406 26.7044 9.06572 26.7044 10.5405C26.7044 11.1367 26.6074 11.177 26.5941 11.2308C26.5235 11.3429 26.4132 11.4684 26.2368 11.6073C25.7735 11.9615 25.5397 12.0466 25.5132 12.1094C25.4868 12.1721 25.5176 12.1811 25.5927 12.199C25.6677 12.2214 26.2059 12.1408 26.5103 11.8987C26.8632 11.6118 26.9382 11.2622 26.9471 10.9349C26.9515 10.5181 26.8897 8.71608 26.6956 7.38028Z" fill="white"/>
</g>
<defs>
<clipPath id="clip0_728_26682">
<rect width="36" height="23" fill="white" transform="translate(0.5 0.5)"/>
</clipPath>
</defs>
</svg>
