<svg width="50" height="51" viewBox="0 0 50 51" fill="none" xmlns="http://www.w3.org/2000/svg">
<circle cx="25" cy="25.6523" r="25" fill="#FBA63C"/>
<g clip-path="url(#clip0_1832_15407)">
<path d="M21.0202 10.7365C21.0202 10.4728 21.1249 10.2199 21.3114 10.0334C21.4979 9.84695 21.7508 9.74219 22.0145 9.74219H27.9804C28.2441 9.74219 28.497 9.84695 28.6835 10.0334C28.87 10.2199 28.9747 10.4728 28.9747 10.7365C28.9747 11.0002 28.87 11.2531 28.6835 11.4396C28.497 11.6261 28.2441 11.7308 27.9804 11.7308H26.9861V13.8587C29.6942 14.2496 32.2271 15.4298 34.2684 17.2519C36.3096 19.0741 37.7687 21.4573 38.4633 24.1038C39.158 26.7504 39.0574 29.543 38.1741 32.1327C37.2908 34.7224 35.664 36.9944 33.4969 38.6649L34.692 39.8621C34.8788 40.0485 34.9838 40.3015 34.9839 40.5653C34.9841 40.8292 34.8795 41.0823 34.693 41.269C34.5066 41.4557 34.2536 41.5607 33.9898 41.5609C33.7259 41.5611 33.4728 41.4565 33.2861 41.27L31.8026 39.7865C29.7244 40.953 27.3806 41.5639 24.9974 41.5604C22.6143 41.5639 20.2705 40.953 18.1923 39.7865L16.7088 41.27C16.6164 41.3623 16.5066 41.4356 16.3859 41.4855C16.2652 41.5354 16.1358 41.561 16.0051 41.5609C15.8745 41.5608 15.7451 41.535 15.6245 41.4849C15.5038 41.4348 15.3942 41.3615 15.3018 41.269C15.2095 41.1766 15.1363 41.0669 15.0864 40.9461C15.0365 40.8254 15.0109 40.696 15.011 40.5653C15.0111 40.3015 15.1161 40.0485 15.3028 39.8621L16.5 38.6649C14.333 36.9945 12.7061 34.7227 11.8227 32.1331C10.9394 29.5436 10.8386 26.7511 11.533 24.1046C12.2274 21.4581 13.6862 19.0749 15.7272 17.2526C17.7682 15.4304 20.3008 14.2499 23.0088 13.8587V11.7308H22.0145C21.7508 11.7308 21.4979 11.6261 21.3114 11.4396C21.1249 11.2531 21.0202 11.0002 21.0202 10.7365ZM25.9918 20.6797C25.9918 20.416 25.887 20.1631 25.7005 19.9766C25.5141 19.7901 25.2612 19.6854 24.9974 19.6854C24.7337 19.6854 24.4808 19.7901 24.2944 19.9766C24.1079 20.1631 24.0031 20.416 24.0031 20.6797V27.3655L21.1614 32.0984C21.0256 32.3247 20.9852 32.5956 21.0492 32.8517C21.1131 33.1077 21.2762 33.3278 21.5024 33.4636C21.7287 33.5994 21.9996 33.6398 22.2557 33.5759C22.5117 33.5119 22.7318 33.3489 22.8676 33.1226L25.8506 28.151C25.943 27.9966 25.9918 27.8199 25.9918 27.6399V20.6797ZM10.7986 20.455C10.284 20.0074 9.86708 19.4588 9.57364 18.8432C9.28019 18.2276 9.11654 17.5582 9.09284 16.8766C9.06915 16.1951 9.18593 15.5159 9.43592 14.8814C9.68592 14.247 10.0638 13.6707 10.546 13.1885C11.0282 12.7062 11.6045 12.3284 12.239 12.0784C12.8735 11.8284 13.5526 11.7116 14.2341 11.7353C14.9157 11.759 15.5851 11.9227 16.2007 12.2161C16.8163 12.5096 17.3649 12.9265 17.8125 13.4411C14.7897 14.9758 12.3333 17.4321 10.7986 20.455ZM32.1824 13.4411C32.63 12.9265 33.1786 12.5096 33.7942 12.2161C34.4098 11.9227 35.0792 11.759 35.7607 11.7353C36.4423 11.7116 37.1214 11.8284 37.7559 12.0784C38.3904 12.3284 38.9667 12.7062 39.4489 13.1885C39.9311 13.6707 40.309 14.247 40.559 14.8814C40.809 15.5159 40.9257 16.1951 40.902 16.8766C40.8784 17.5582 40.7147 18.2276 40.4213 18.8432C40.1278 19.4588 39.7109 20.0074 39.1963 20.455C37.6616 17.4321 35.2052 14.9758 32.1824 13.4411Z" fill="white"/>
</g>
<defs>
<clipPath id="clip0_1832_15407">
<rect width="31.8182" height="31.8182" fill="white" transform="translate(9.08984 9.74219)"/>
</clipPath>
</defs>
</svg>
