<svg xmlns="http://www.w3.org/2000/svg" id="Layer_1" version="1.1" viewBox="114.14 188 613.62 219.28">
  <!-- Generator: Adobe Illustrator 29.0.0, SVG Export Plug-In . SVG Version: 2.1.0 Build 186)  -->
  <defs>
    <style>
      .st0 {
        fill: #273d7c;
      }

      .st1 {
        fill: #c5ab84;
      }
    </style>
  </defs>
  <g>
    <path class="st0" d="M144.58,387.35v-3.67h-.92c-2.1,0-3.41-1.18-3.41-3.15v-7.34h-3.54v11.41c0,5.38-3.41,7.35-8.39,7.35h-1.84c-5.25,0-8-1.84-8-7.35v-6.95h-3.54v6.95c0,7.74,3.94,11.02,11.41,11.02h1.97c7.08,0,11.81-3.54,11.94-9.44.66.65,2.1,1.18,3.54,1.18h.79ZM124.77,368.2v3.8h3.8v-3.8h-3.8ZM248.33,383.55h-12.85l.39,3.81h12.46c5.12,0,7.74-2.62,7.74-6.43,0-1.97-.66-3.8-2.62-6.03l-7.61-8.66-2.49,2.62,7.22,8.39c1.31,1.57,1.84,2.49,1.84,3.54,0,1.71-1.44,2.76-4.07,2.76M121.62,307.86v3.67h3.8v-3.67h-3.8ZM127,311.54h3.8v-3.67h-3.8v3.67ZM133.95,337.38v-3.8c-2.1,0-3.15-1.18-3.15-4.33v-14.04h-3.67v3.02h-4.46c-5.12,0-8.53,4.2-8.53,9.05,0,5.25,3.15,8,8.13,8,3.8,0,6.03-2.62,6.03-5.77v-2.23c-1.57,7.48,1.18,10.1,5.64,10.1M122.67,322.03h4.46v6.3c0,1.84-1.57,3.15-4.59,3.15s-4.85-1.44-4.85-4.33c0-3.28,1.84-5.12,4.98-5.12M165.96,392.73v3.8h3.8v-3.8h-3.8ZM205.31,360.33v3.8h3.8v-3.8h-3.8ZM171.2,392.73v3.8h3.8v-3.8h-3.8ZM149.56,392.73v3.8h3.67v-3.81h-3.67ZM154.94,392.73v3.8h3.8v-3.8h-3.8ZM340.01,307.85v3.67h3.8v-3.67h-3.8ZM345.39,311.53h3.8v-3.67h-3.8v3.67ZM173.22,346.56h3.8v-3.67h-3.8v3.67ZM178.6,346.56h3.8v-3.67h-3.8v3.67ZM396.82,346.55h3.8v-3.67h-3.8v3.67ZM402.2,342.88v3.67h3.8v-3.67h-3.8ZM276.93,360.2v27.15h3.67v-27.15h-3.67ZM265.39,360.2v20.2c0,1.97-1.44,3.28-3.54,3.28h-15.22s5.38.53,5.38.53c1.57,1.97,1.97,3.15,5.77,3.15h4.07c4.33,0,7.21-2.49,7.21-6.95v-20.2h-3.67ZM225.25,360.2v27.15h3.54v-27.15h-3.54ZM209.9,369.38h-11.81s-.52,3.67-.52,3.67h11.67c3.15,0,4.59,1.05,5.64,4.2l-6.82,4.07c-3.02,1.7-5.51,2.36-9.97,2.36h-4.2c-1.84,0-3.41-1.05-3.41-3.54v-19.94h-3.67v20.2c0,1.97-1.44,3.28-3.54,3.28h-4.59c-2.36,0-3.67-1.18-3.67-3.41v-6.95h-3.54v7.08c0,1.97-1.57,3.28-3.8,3.28h-5.51c-2.23,0-3.41-1.18-3.41-3.41v-6.95h-3.67v7.08c0,1.97-1.44,3.28-3.67,3.28h-6.95v3.67h6.95c2.49,0,4.33-.79,5.51-2.49.66,1.7,2.62,2.49,5.25,2.49h5.51c2.49,0,4.46-.79,5.51-2.49.92,1.71,2.62,2.49,5.25,2.49h4.85c2.49,0,4.33-.92,5.38-2.62.66,1.7,2.49,2.62,5.12,2.62h4.2c5.12,0,8.13-.79,11.81-3.02l9.31-5.77c-1.7-6.95-3.93-9.18-9.18-9.18M390.92,317.04v-3.02h-2.23c-1.05,0-1.84-.13-2.23-.39-.52-.39-.92-.79-.92-1.31,0-.92.79-1.44,2.23-1.44h2.1v-2.89h-2.1c-1.44,0-2.62.39-3.41,1.05-.92.79-1.31,1.7-1.31,2.89,0,.92.26,1.7.79,2.36l.13.13h-1.84v2.62h8.79ZM459.39,360.19v20.2c0,1.97-1.44,3.15-3.54,3.15h-2.49c-1.84,0-3.41-.92-3.41-3.41v-19.94s-3.67,0-3.67,0v20.2c0,1.97-1.44,3.15-3.54,3.15h-2.62c-2.1,0-3.15-.92-3.15-3.54v-1.18c0-5.77-2.89-8.92-8.13-8.92s-8.39,3.41-8.39,9.18v1.7c0,1.84-1.05,2.75-3.15,2.76h-4.2c-2.36,0-3.67-1.18-3.67-3.28v-7.08h-3.67s0,12.99,0,12.99c0,4.72-.39,5.64-5.25,5.64h-2.1l.39,3.67h1.71c6.82,0,8.79-2.23,8.92-9.05v-.53c.66.92,2.1,1.44,3.67,1.44h4.2c4.46,0,5.9-2.1,6.3-7.48l-1.84,1.31c-.26,3.94,2.23,6.16,6.95,6.16,2.62,0,5.12-.92,6.3-2.76.92,1.97,2.49,2.76,5.12,2.76h2.62c2.49,0,4.33-.92,5.38-2.62.66,1.7,2.62,2.62,5.12,2.62h2.62c4.33,0,7.22-2.49,7.22-6.95v-20.2h-3.67ZM428.7,383.54c-1.57,0-3.15-.26-4.59-2.1v-2.36c0-3.67,1.44-5.38,4.59-5.38,3.15,0,4.59,1.71,4.59,5.12,0,3.28-1.58,4.72-4.59,4.72M391.97,360.19v27.15h3.54v-27.15h-3.54ZM305.13,395.61h1.97c7.08,0,11.81-3.54,11.94-9.45.66.66,2.1,1.18,3.54,1.18h3.15c2.49,0,4.46-.79,5.51-2.49.92,1.7,2.62,2.49,5.25,2.49h-1.7,3.93c4.72,0,7.61-.53,10.23-2.23,1.84,1.71,3.67,2.23,9.18,2.23h6.56c5.12,0,8.13-.79,11.81-3.02l9.18-5.77c-1.57-6.95-3.93-9.31-9.05-9.31h-11.81l-.53,3.93h11.67c3.15,0,4.59.92,5.51,4.2l-6.69,3.93c-3.15,1.71-5.51,2.23-9.97,2.23h-6.69c-2.89,0-4.2-.13-4.98-.66,4.59-3.8,5.64-5.64,5.64-7.87,0-3.15-2.62-4.59-5.77-4.59h-11.28l-1.97,3.67,5.9,8.53c-1.18.65-3.15.92-6.69.92h-4.2,1.84c-2.23,0-3.54-1.05-3.54-3.28v-7.08h-3.67v7.21c0,2.1-1.44,3.15-3.67,3.15h-3.28c-2.1,0-3.41-1.05-3.41-3.02v-7.35h-3.54v11.41c0,5.38-3.41,7.35-8.39,7.35h-1.84c-5.25,0-8-1.84-8-7.34v-6.95h-3.54v6.95c0,7.74,3.94,11.02,11.41,11.02M349.34,382.1l-5.51-8.13h8.66c1.84,0,2.76.52,2.76,1.84,0,1.18-1.05,2.36-5.9,6.3M324.15,396.66h3.67v-3.8h-3.67v3.8ZM303.56,368.2v3.8h3.8v-3.81h-3.8ZM370.85,392.85v3.8h3.8v-3.8h-3.8ZM329.4,392.86v3.8h3.8v-3.8h-3.8ZM459.39,310.21v27.15h3.67v-27.15s-3.67,0-3.67,0ZM340.66,335.27c3.81,0,6.03-2.62,6.03-5.77v-2.23c-1.57,7.48,1.18,10.1,5.64,10.1h28.74c2.49,0,4.46-.79,5.51-2.62.79,1.84,2.62,2.62,5.25,2.62h6.56c2.62,0,4.59-.79,5.51-2.62.92,1.84,2.76,2.62,5.38,2.62h12.07v.52c0,5.12,3.81,8.79,10.1,8.79h1.97l3.67-5.38c1.97-3.02,3.15-3.94,5.77-3.94h1.31c4.33,0,7.21-2.62,7.21-6.95v-20.2h-3.67v20.07c0,2.1-1.44,3.28-3.54,3.28h-1.31c-4.07,0-5.51,1.57-8.66,5.77l-2.76,3.67c-4.2,0-6.43-2.1-6.43-5.25v-.52c7.22-.13,12.46-4.33,12.46-10.1,0-2.23-.66-4.07-1.97-5.51-1.44-1.44-3.54-2.23-6.03-2.23-4.98,0-8.13,3.67-8.13,9.44v4.72h-11.94c-2.23,0-3.54-1.18-3.54-3.28v-7.08h-3.67v7.08c0,2.1-1.57,3.28-3.8,3.28h-6.43c-2.23,0-3.54-1.18-3.54-3.28v-7.08h-3.67v7.08c0,2.1-1.44,3.28-3.67,3.28h-28.74c-2.1,0-3.15-1.18-3.15-4.33v-14.04h-3.67v3.02h-4.46c-5.12,0-8.53,4.2-8.53,9.05,0,5.25,3.15,8,8.13,8M425.02,333.56v-4.72c0-3.67,1.57-5.77,4.46-5.77,1.31,0,2.36.39,3.02,1.05.92.79,1.31,1.84,1.31,3.28,0,3.8-3.41,6.16-8.79,6.16M341.06,322.02h4.46v6.3c0,1.84-1.57,3.15-4.59,3.15s-4.85-1.44-4.85-4.33c0-3.28,1.84-5.12,4.98-5.12M318.11,310.22v27.15h3.67v-27.15h-3.67ZM221.44,341.7h-4.99l.39,3.8h4.59c6.56,0,8.79-3.93,8.79-8.13h8.79c4.85,0,7.61-.53,10.23-2.23,1.84,1.7,3.67,2.23,9.18,2.23h6.43c4.2,0,6.03-.92,7.21-2.62.79,1.71,2.62,2.62,5.9,2.62,2.75,0,4.72-.92,5.77-2.62.79,1.7,2.62,2.62,5.64,2.62,2.49,0,4.46-.79,5.51-2.62.79,1.84,2.62,2.62,5.38,2.62h2.75c4.2,0,7.22-2.62,7.21-6.95v-20.2h-3.67s0,20.07,0,20.07c0,2.1-1.57,3.28-3.54,3.28h-2.75c-2.23,0-3.41-1.18-3.41-3.41v-8h-3.67v8c0,2.1-1.31,3.41-3.8,3.41-2.36,0-3.67-1.18-3.67-3.41v-6.95h-3.67v6.95c0,2.1-1.44,3.41-4.07,3.41-2.76,0-4.46-1.18-3.94-3.41l1.31-5.38h-3.67s-1.31,5.38-1.31,5.38c-.53,2.1-1.57,3.41-5.51,3.41h-6.43c-2.88,0-4.2-.13-4.98-.66,4.59-3.93,5.64-5.64,5.64-7.87,0-3.28-2.62-4.72-5.77-4.72h-11.28s-1.97,3.8-1.97,3.8l5.9,8.53c-1.18.66-3.15.92-6.69.92h-9.05v-3.67c0-5.9-3.15-9.58-8.27-9.58s-8.26,3.81-8.26,9.31c0,5.25,2.49,7.74,8.53,7.74h4.33c0,1.71-.92,4.33-5.12,4.33M249.64,332.13l-5.51-8.26h8.66c1.84,0,2.76.66,2.76,1.84,0,1.18-1.05,2.49-5.9,6.43M226.56,333.57h-4.2c-3.8,0-5.11-1.18-5.11-4.07,0-3.28,1.84-5.38,4.59-5.38,3.15,0,4.72,1.97,4.72,6.03v3.41ZM202.06,333.57h-12.85s.39,3.81.39,3.81h12.46c5.12,0,7.74-2.62,7.74-6.43,0-1.97-.66-3.8-2.62-6.03l-7.61-8.66-2.49,2.62,7.21,8.39c1.31,1.57,1.84,2.49,1.84,3.54,0,1.7-1.44,2.75-4.07,2.75M133.95,333.57v3.8h39.54s4.72,0,4.72,0c4.2,0,7.21-2.62,7.21-6.95v-7.21h-3.8v7.08c0,2.1-1.44,3.28-3.41,3.28h-43.08s-1.18,0-1.18,0Z"/>
    <polygon class="st0" points="353.63 279.16 325.09 207.83 309.86 207.83 281.37 279.17 298.04 279.17 303.28 263.72 319.29 263.72 327.26 250.96 306.93 250.96 317.14 223.99 336.43 279.16 353.63 279.16"/>
    <rect class="st0" x="364.99" y="207.83" width="16.06" height="71.34"/>
    <path class="st0" d="M239.71,263.91c2.68,2.21,6.19,3.31,10.54,3.31,3.53,0,6.4-.73,8.6-2.19,2.21-1.46,3.31-3.51,3.31-6.16,0-1.9-.63-3.39-1.88-4.48-1.26-1.09-3-1.93-5.24-2.54-2.24-.61-5.67-1.36-10.28-2.24-7.13-1.36-12.72-3.53-16.8-6.51-4.07-2.99-6.11-7.74-6.11-14.25,0-4.14,1.12-7.86,3.36-11.15,2.24-3.29,5.36-5.87,9.37-7.74,4-1.87,8.48-2.8,13.44-2.8,5.36,0,10.15,1,14.35,3,4.21,2,7.53,4.75,9.98,8.25,2.44,3.5,3.7,7.41,3.77,11.76h-14.96c-.34-3.05-1.7-5.55-4.07-7.48-2.38-1.93-5.39-2.9-9.06-2.9-3.26,0-5.89.68-7.89,2.04-2,1.36-3,3.33-3,5.9,0,1.83.63,3.29,1.88,4.38,1.26,1.09,3.04,1.93,5.34,2.54,2.31.61,5.7,1.32,10.18,2.14,4.68.88,8.67,2.02,11.96,3.41,3.29,1.39,5.95,3.46,7.99,6.21,2.04,2.75,3.05,6.36,3.05,10.84s-1.2,8.13-3.61,11.55c-2.41,3.43-5.7,6.11-9.88,8.04-4.17,1.93-8.84,2.9-14,2.9-5.84,0-10.99-1.07-15.47-3.21-4.48-2.14-7.97-5.07-10.49-8.81-2.51-3.73-3.8-7.94-3.87-12.62l14.97.2c.34,3.53,1.85,6.4,4.53,8.6"/>
    <polygon class="st0" points="466.36 279.16 437.81 207.83 422.59 207.83 394.1 279.17 410.77 279.17 416.01 263.72 432.02 263.72 439.99 250.96 419.66 250.96 429.87 223.99 449.16 279.16 466.36 279.16"/>
  </g>
  <g>
    <path class="st0" d="M650.22,192.78l-3.69,29.45c-2.27-1.36-4.6-2.63-7-3.8l-.21-28.4c3.52.69,6.98,1.55,10.37,2.58.18.05.35.11.53.17Z"/>
    <path class="st0" d="M517.63,260.43c-2.54,5.17-4.6,10.61-6.12,16.28h-1.13c1.1-5.7,2.65-11.25,4.6-16.61l2.65.33Z"/>
    <path class="st0" d="M714.79,349.41c-2.3,4.3-4.89,8.43-7.74,12.36l-40.21-51.35c1.56-1.2,3.04-2.51,4.42-3.91l43.53,42.9Z"/>
    <path class="st0" d="M727.18,286.43l-43.61-5.45c.2-1.73.31-3.49.31-5.27v-.32l41.56-.26c.77,3.7,1.35,7.47,1.74,11.3Z"/>
    <path class="st0" d="M640.59,354.05c-3.42-2.04-6.69-4.29-9.79-6.75l3.46-28.09c1.88.25,3.79.38,5.74.38h.32l.27,34.46Z"/>
    <path class="st0" d="M606.78,209.53c-2.37-.19-4.76-.28-7.18-.28-1.43,0-2.85.03-4.26.1l-11.03-16.08c4.11-1.33,8.32-2.43,12.63-3.26l9.84,19.52Z"/>
    <path class="st0" d="M603.73,300.4l-3.52,2.38c-.59-1.92-1.13-3.87-1.59-5.85l2.35-1.17c.82,1.61,1.74,3.16,2.76,4.64Z"/>
    <path class="st0" d="M711.13,239.58l-32.17,15.93c-.07-.15-.15-.3-.23-.45-.02-.02-.03-.05-.04-.07-.71-1.32-1.49-2.6-2.33-3.84,9.65-6.67,19.32-13.3,29-19.91,2.05,2.69,3.98,5.47,5.77,8.34Z"/>
    <path class="st0" d="M635.78,216.71c-2.85-1.24-5.79-2.33-8.79-3.28l-5.05-25.4c4,.14,7.95.49,11.83,1.05l2.01,27.63Z"/>
    <path class="st0" d="M657.74,362.02c-4.14-1.42-8.14-3.13-11.99-5.1-.88-12.48-1.76-24.97-2.64-37.44,1.92-.13,3.82-.39,5.67-.77l8.96,43.31Z"/>
    <path class="st0" d="M724.06,269.36l-40.34,2.75c-.14-1.87-.41-3.71-.8-5.51l37.8-7.65c1.29,3.39,2.4,6.86,3.34,10.41Z"/>
    <path class="st0" d="M700.64,365.96c-4.34.65-8.78.97-13.29.97-.51,0-1.02,0-1.52,0l-25.96-52.08c1.54-.78,3.02-1.65,4.45-2.6l36.32,53.72Z"/>
    <path class="st0" d="M726.92,311.09c-.52,4.3-1.29,8.53-2.3,12.66l-46.45-26.38c.89-1.57,1.69-3.2,2.39-4.89l46.36,18.61Z"/>
    <path class="st0" d="M549.54,224.2c-4.43,2.91-8.58,6.19-12.43,9.81l-6.45-2.62c3.21-4.24,6.72-8.23,10.51-11.94l8.37,4.75Z"/>
    <path class="st0" d="M609.22,306.97l-5.41,5.43c-.96-2.17-1.83-4.38-2.61-6.63l4.1-3.21c1.21,1.56,2.52,3.03,3.92,4.41Z"/>
    <path class="st0" d="M623.24,316.28l-6.78,16.85c-1.81-2.23-3.52-4.55-5.12-6.95l7.02-12.29c1.57.89,3.19,1.69,4.88,2.39Z"/>
    <path class="st0" d="M679.13,206.53l-16.05,28.45c-.08-.09-.17-.18-.26-.26-1.43-1.38-2.91-2.71-4.42-3.99l11.86-29.56c3.05,1.65,6.01,3.44,8.87,5.36Z"/>
    <path class="st0" d="M722.78,330.35c-1.34,4.32-2.95,8.53-4.8,12.6l-44.82-38.5c1.19-1.37,2.29-2.81,3.3-4.32l46.32,30.22Z"/>
    <path class="st0" d="M691.44,216.13c-7.38,8.5-14.77,16.99-22.18,25.46-1.24-1.49-2.54-2.93-3.91-4.33l18.15-27.64c2.75,2.04,5.4,4.21,7.94,6.51Z"/>
    <path class="st0" d="M569.26,214.42c-4.62,1.62-9.06,3.61-13.3,5.93l-9.18-6.04c3.79-3.26,7.8-6.24,12.01-8.95l10.47,9.06Z"/>
    <path class="st0" d="M701.95,226.99l-27.5,21.32c-1.04-1.48-2.11-2.93-3.25-4.35l23.96-24.32c2.38,2.34,4.65,4.8,6.79,7.35Z"/>
    <path class="st0" d="M615.83,312.33l-6.8,10.19c-1.31-2.18-2.52-4.42-3.65-6.72l5.96-6.87c1.42,1.23,2.92,2.37,4.49,3.4Z"/>
    <path class="st0" d="M588.86,209.88c-4.4.51-8.71,1.34-12.89,2.47l-10.93-10.72c4.08-2.27,8.33-4.28,12.71-6.01l11.11,14.26Z"/>
    <path class="st0" d="M599.52,292.65l-1.68.71c-.37-1.9-.69-3.83-.94-5.77l.8-.22c.49,1.81,1.1,3.57,1.82,5.28Z"/>
    <path class="st0" d="M718.71,253.99l-36.4,10.1c-.53-1.96-1.19-3.87-1.99-5.71l33.55-14.17c1.77,3.17,3.39,6.43,4.84,9.78Z"/>
    <path class="st0" d="M678.23,366.48c-4.55-.45-9-1.23-13.33-2.33-.24-.06-.49-.12-.73-.19l-12.59-45.92c1.84-.5,3.63-1.11,5.36-1.84l21.29,50.28Z"/>
    <path class="st0" d="M665.44,198.71l-9.78,29.8c-1.93-1.51-3.91-2.94-5.96-4.28l5.68-29.74c3.44,1.24,6.79,2.65,10.06,4.22Z"/>
    <path class="st0" d="M622.58,212.17c-.17-.05-.35-.09-.53-.14-3.23-.82-6.53-1.46-9.89-1.92l-8.92-21.14c4.17-.57,8.41-.9,12.72-.97l6.62,24.17Z"/>
    <path class="st0" d="M631.64,318.79l-4.76,25.22c-2.53-2.23-4.93-4.61-7.19-7.11l6.5-19.53c1.77.59,3.59,1.07,5.45,1.42Z"/>
    <path class="st0" d="M727.75,297.65c0,.13,0,.26,0,.39-.01,2.24-.08,4.47-.23,6.67l-45.85-15.17c.6-1.83,1.09-3.71,1.45-5.64l44.51,8.51c.09,1.73.13,3.48.13,5.24Z"/>
    <path class="st0" d="M531.34,239.96c-3.6,4.05-6.83,8.42-9.66,13.07l-3.54-.67c2.24-4.93,4.84-9.67,7.75-14.17l5.45,1.77Z"/>
  </g>
  <g>
    <path class="st1" d="M596.15,274.44c-.01.42-.02.85-.02,1.27,0,.13,0,.26.01.4l-84.63.6c.78-2.91,1.71-5.76,2.76-8.55,27.31,1.6,54.63,3.21,81.94,4.84-.02.48-.05.96-.06,1.44Z"/>
    <path class="st1" d="M643.22,220.33l-.7,11.59c-.41-.03-.82-.05-1.24-.06s-.85-.02-1.28-.02c-.13,0-.25,0-.38.01l-.09-13.42c1.25.61,2.48,1.24,3.69,1.9Z"/>
    <path class="st1" d="M640.98,404.93c-2.9.62-5.84,1.12-8.82,1.5l3.26-55.71c1.68,1.17,3.41,2.28,5.17,3.33l.39,50.88Z"/>
    <path class="st1" d="M702.1,368.11c-1.52,1.83-3.12,3.61-4.79,5.34l-3.97-6.72c2.47-.15,4.9-.41,7.31-.77l1.45,2.15Z"/>
    <path class="st1" d="M617.61,237.99c-.62.36-1.23.75-1.83,1.15l-20.44-29.79c1.41-.07,2.83-.1,4.26-.1.38,0,.77,0,1.15,0h.01l16.85,28.73Z"/>
    <path class="st1" d="M600.21,302.78l-76.04,51.59c-1.62-2.68-3.13-5.43-4.52-8.26l79.64-46.55c.28,1.08.59,2.16.92,3.22Z"/>
    <path class="st1" d="M596.58,284.74l-88.07,18.14c-.06-1.29-.1-2.59-.11-3.89.03-1.81.11-3.62.25-5.4l87.68-12.03c.06,1.07.15,2.13.25,3.18Z"/>
    <path class="st1" d="M633.81,232.28c-1,.14-1.99.31-2.96.52l-3.86-19.37c1.5.47,2.98.98,4.44,1.53l2.38,17.32Z"/>
    <path class="st1" d="M616.46,333.13l-28.22,70.09c-3-.85-5.95-1.82-8.84-2.91l34.27-70.79c.9,1.22,1.83,2.43,2.79,3.61Z"/>
    <path class="st1" d="M664.94,396.84c-2.53,1.2-5.12,2.3-7.76,3.3l-5.7-40.53c2.05.88,4.14,1.68,6.26,2.41l7.2,34.82Z"/>
    <path class="st1" d="M604.84,249.48c-.51.68-1,1.37-1.47,2.08l-47.41-31.21c2.11-1.16,4.27-2.23,6.48-3.21l42.4,32.34Z"/>
    <path class="st1" d="M600.58,256.45c-.45.92-.87,1.84-1.26,2.8l-62.21-25.24c1.95-1.84,3.99-3.59,6.1-5.24l57.37,27.68Z"/>
    <path class="st1" d="M660.91,232.94l-1.63,3.36c-.86-.43-1.75-.83-2.64-1.2l1.76-4.37c.85.72,1.69,1.46,2.51,2.21Z"/>
    <path class="st1" d="M667.39,239.44l-.94,1.26c-.75-.56-1.51-1.1-2.29-1.61l1.2-1.82c.7.71,1.38,1.44,2.03,2.17Z"/>
    <path class="st1" d="M609.03,322.52l-46.52,69.71c-2.57-1.5-5.06-3.11-7.49-4.82l51.95-68.52c.66,1.23,1.35,2.44,2.06,3.63Z"/>
    <path class="st1" d="M652.91,226.45l-1.78,6.82c-.99-.26-2-.49-3.01-.68l1.59-8.35c1.08.71,2.15,1.45,3.2,2.21Z"/>
    <path class="st1" d="M626.88,344.01l-11.97,63.27c-3.13-.08-6.23-.3-9.29-.65l17.4-66.24c1.25,1.24,2.53,2.45,3.86,3.62Z"/>
    <path class="st1" d="M597.6,264.44c-.25.93-.47,1.86-.65,2.81l-75.27-14.22c1.49-2.46,3.1-4.84,4.82-7.13l71.1,18.54Z"/>
    <path class="st1" d="M603.81,312.39h0s-62.92,63.18-62.92,63.18c-2.11-2.07-4.13-4.24-6.06-6.49l67.52-60.18c.46,1.18.95,2.34,1.46,3.49Z"/>
    <path class="st1" d="M597.84,293.35l-84.84,35.85c-.03-.09-.05-.17-.08-.26-.85-2.86-1.59-5.77-2.21-8.73l86.59-29.88c.16,1.01.34,2.02.54,3.02Z"/>
    <path class="st1" d="M625.66,234.25c-.97.33-1.92.7-2.86,1.1l-10.64-25.24c1.84.25,3.66.56,5.46.92l8.04,23.22Z"/>
    <path class="st1" d="M685.66,384.01c-2.14,1.69-4.34,3.29-6.61,4.8l-8.04-23.34c2.37.43,4.78.77,7.22,1.01l7.43,17.53Z"/>
    <path class="st1" d="M610.73,243.05c-.6.53-1.18,1.08-1.75,1.65l-33.01-32.35c2.06-.56,4.16-1.04,6.28-1.44l28.48,32.14Z"/>
  </g>
  <g>
    <polygon class="st0" points="661.02 286.95 659.55 284.07 639.88 294.08 620.21 284.07 618.74 286.95 636.31 295.89 629.09 299.56 630.56 302.45 639.88 297.71 649.2 302.45 650.67 299.56 643.45 295.89 661.02 286.95"/>
    <polygon class="st0" points="627.24 271.22 629.64 273.9 638.22 266.22 638.22 285.51 641.82 285.51 641.82 266.22 650.39 273.9 652.79 271.22 644.73 264 660.35 264 660.35 260.4 644.72 260.4 652.79 253.17 650.39 250.49 641.82 258.17 641.82 248.78 638.22 248.78 638.22 258.17 629.64 250.49 627.24 253.17 635.31 260.4 619.41 260.4 619.41 264 635.3 264 627.24 271.22"/>
  </g>
</svg>